<?xml version="1.0" encoding="utf-8"?>
<!-- Generator: Adobe Illustrator 23.1.0, SVG Export Plug-In . SVG Version: 6.00 Build 0)  -->
<svg version="1.1" id="Layer_1" xmlns="http://www.w3.org/2000/svg" xmlns:xlink="http://www.w3.org/1999/xlink" x="0px" y="0px"
	 viewBox="0 0 1800 550" style="enable-background:new 0 0 1800 550;" xml:space="preserve">
<style type="text/css">
	.st0{fill:#FDFDFD;}
	.st1{fill:#FEFEFE;}
</style>
<g>
	<g>
		<path class="st0" d="M900,0.09c298.47,0,596.94,0.01,895.41-0.09c3.75,0,4.6,0.84,4.59,4.59c-0.11,180.27-0.11,360.54,0,540.82
			c0,3.75-0.84,4.59-4.59,4.59c-596.94-0.1-1193.88-0.1-1790.81,0c-3.75,0-4.6-0.84-4.59-4.59C0.11,365.14,0.11,184.86,0,4.59
			C0,0.84,0.84,0,4.59,0C303.06,0.1,601.53,0.09,900,0.09z"/>
		<path d="M509.04,251.05c0,20.66-0.06,41.32,0.07,61.97c0.02,2.81-0.59,3.92-3.53,4.38c-10.05,1.6-20.13,2.57-30.19,0.85
			c-11.22-1.92-15.81-8.55-15.83-22.09c-0.05-34.82-0.02-69.64-0.02-104.46c0-6.68,0-6.68-6.93-6.68c-15.16,0-30.33,0.09-45.49-0.08
			c-2.9-0.03-4.52,0.77-5.59,3.48c-2.69,6.78-7.37,12.23-12.87,16.79c-3.26,2.7-3.49,5.48-2.72,9.15
			c3.99,19.09,12.32,36.53,20.53,53.99c9.68,20.6,20.29,40.72,32.78,59.76c8.5,12.96,17.3,25.81,30.11,35.09
			c4.76,3.45,9.87,5.89,16.19,5.85c32.49-0.2,64.99-0.14,97.48-0.03c3.32,0.01,5.26-0.72,6.83-3.96
			c12.92-26.61,46.51-38.34,74.85-20.88c8.23,5.07,14.87,12.14,18.74,21.29c1.1,2.6,2.56,3.57,5.55,3.56
			c135.31-0.09,270.62-0.09,405.92-0.01c2.94,0,4.35-0.94,5.59-3.5c13.15-27.33,47.03-38.69,75.11-21.36
			c8.07,4.98,14.69,11.84,18.53,20.83c1.23,2.89,2.78,4.08,6.25,4.08c134.64-0.13,269.28-0.12,403.92-0.02
			c3.31,0,4.95-0.95,6.37-3.9c12.87-26.6,46.64-38.66,74.81-20.98c22.2,13.93,30.46,41.88,19.7,65.72
			c-13.42,29.76-51.5,41.78-80.58,19.53c-5.64-4.31-10.6-9.68-13.38-16.41c-1.38-3.35-3.32-4.14-6.74-4.13
			c-134.81,0.09-269.62,0.09-404.42,0c-3.26,0-4.83,0.9-6.39,3.91c-13.55,26.12-46.66,37.22-74.88,19.69
			c-7.73-4.8-14.18-11.49-17.83-20.17c-1.18-2.81-2.88-3.41-5.71-3.41c-135.48,0.06-270.95,0.07-406.43-0.02
			c-3.1,0-4.58,0.96-6.01,3.71c-17.93,34.69-65.7,38.02-88.27,7c-0.78-1.07-2.16-1.92-2.44-3.07c-1.86-7.45-7.15-7.74-13.58-7.69
			c-30.94,0.27-61.89,0.32-92.83,0c-9.65-0.1-18.19-4.74-26.39-9.42c-21.55-12.29-37.59-30.26-51.83-50.21
			c-13.48-18.88-24.66-39.03-34.52-59.95c-10.43-22.15-19.44-44.8-23.43-69.14c-0.34-2.05-1.47-2.54-3.28-2.87
			c-17.92-3.3-31.15-12.93-39.07-29.46c-1.01-2.1-2.15-2.82-4.48-2.81c-35.83,0.08-71.65,0.08-107.48,0
			c-2.46-0.01-3.85,0.62-4.99,2.94c-13.32,27.17-47.34,38.35-74.82,20.85c-28.32-18.04-32.84-56.15-9.67-80.39
			c17.35-18.16,43.66-21.78,65.82-8.18c8.25,5.06,14.95,12.04,18.8,21.21c1.19,2.82,2.81,3.75,5.96,3.73
			c35.16-0.14,70.32-0.13,105.48-0.02c3.2,0.01,4.87-0.77,6.45-3.83c13.52-26.17,46.61-37.39,74.86-19.81
			c7.59,4.72,13.96,11.27,17.65,19.71c1.37,3.14,3.09,3.95,6.37,3.94c47.16-0.11,94.32-0.03,141.47-0.16
			c3.7-0.01,5.67,0.89,6.96,4.54c2.9,8.17,4.29,16.39,1.45,24.74c-2.36,6.97-8.21,10.7-16.06,10.76
			c-9.33,0.08-18.67,0.18-27.99-0.07c-3.36-0.09-4.06,0.96-4.04,4.14C509.11,209.74,509.04,230.39,509.04,251.05z"/>
		<path d="M996.25,226.36c17.15,5.87,29.82,15.62,32.59,33.85c3.96,26.01-8.79,46.46-33.61,55.18c-17.26,6.06-35.14,7.3-53.32,6.73
			c-11.31-0.35-22.47-1.52-33.51-3.73c-8.43-1.68-16.77-3.91-22.54-11.22c-2.69-3.41-3.85-7.24-3.85-11.49
			c-0.01-44.81-0.02-89.62,0.01-134.43c0-6.3,3.38-10.67,9.94-13.21c12.51-4.85,25.7-6.12,38.88-6.88c18.38-1.05,36.78-1.03,54.74,4
			c11.66,3.26,22,8.56,29.9,18.27c16.39,20.17,8.11,52.07-16.12,61.25C998.45,225.02,997.65,225.59,996.25,226.36z"/>
		<path d="M616.52,180.76c18.68-6.65,36.72-7.04,54.79-1.14c19.23,6.27,32.01,23.64,32.72,44.02c1.04,29.95,0.14,59.92,0.56,89.87
			c0.04,3.17-1.01,4.39-3.99,4.87c-8.71,1.39-17.4,2.28-26.22,1.12c-12.07-1.59-17.79-7.96-17.83-20.26
			c-0.06-20.49,0-40.98-0.04-61.46c-0.01-2.65-0.22-5.3-0.49-7.93c-1.03-9.84-5.71-14.81-15.47-16.47
			c-3.63-0.62-7.29-0.61-10.92-0.03c-12.51,2-13.11,2.73-13.11,15.25c0,28.32-0.06,56.63,0.08,84.95c0.02,3.28-0.77,4.58-4.14,5.03
			c-7.58,1.02-15.17,1.82-22.81,1.38c-14.52-0.84-21.01-7.8-21.09-22.55c-0.09-17.16-0.02-34.31-0.02-51.47
			c0-36.31,0.06-72.62-0.09-108.94c-0.02-3.69,0.95-5,4.65-5.5c8.91-1.21,17.8-2.26,26.73-0.87c11.2,1.75,16.54,8.13,16.66,19.69
			C616.6,160.27,616.52,170.24,616.52,180.76z"/>
		<path d="M1610.82,180.61c18.25-6.49,36.29-6.89,54.36-1c19.25,6.27,32.03,23.61,32.74,43.99c1.05,29.95,0.15,59.92,0.55,89.87
			c0.04,3.13-0.95,4.42-3.96,4.9c-8.71,1.39-17.4,2.28-26.22,1.12c-12.1-1.59-17.82-7.94-17.86-20.23
			c-0.06-20.49,0-40.98-0.04-61.46c-0.01-2.65-0.22-5.3-0.49-7.93c-1.04-9.87-5.69-14.82-15.45-16.49
			c-3.63-0.62-7.29-0.62-10.92-0.04c-12.5,1.98-13.14,2.75-13.14,15.22c0,28.32-0.06,56.63,0.08,84.95
			c0.02,3.25-0.71,4.61-4.11,5.06c-7.58,1.01-15.17,1.81-22.81,1.38c-14.53-0.83-21.03-7.79-21.12-22.52
			c-0.09-15.49-0.02-30.98-0.02-46.47c0-37.98,0.05-75.96-0.09-113.93c-0.01-3.64,0.85-5.03,4.62-5.53
			c8.91-1.18,17.79-2.27,26.73-0.87c11.22,1.75,16.55,8.11,16.69,19.66c0.13,9.82,0.08,19.65,0.12,29.47
			C1610.52,179.89,1610.62,180.05,1610.82,180.61z"/>
		<path d="M1277.96,258.45c0,10.32-0.26,20.65,0.08,30.97c0.29,8.75-3.83,14.87-10.57,19.52c-13.08,9.03-28.1,11.96-43.56,12.99
			c-13.9,0.93-27.81,0.64-41.36-3.05c-13.8-3.75-26.22-10.02-32.28-23.9c-9.2-21.09-4.84-50.86,26.96-58.88
			c14.83-3.74,30.07-4.18,45.13-6.08c0.82-0.1,1.65-0.08,2.47-0.18c7.23-0.91,8.7-4.47,4.34-10.6c-4.32-6.08-11.11-6.92-17.62-7.63
			c-15.21-1.64-30.03,0.77-44.25,6.19c-3.88,1.48-6.12,0.38-7.85-2.48c-7.25-12-7.9-27.78,10.86-34.22
			c15.28-5.25,31.16-6.1,47.09-5.41c11.93,0.52,23.63,2.7,34.51,8.09c17.27,8.55,25.48,22.82,25.99,41.69
			C1278.21,236.46,1277.96,247.46,1277.96,258.45z"/>
		<path d="M1335.95,268.35c0,14.99-0.1,29.99,0.08,44.98c0.04,3.28-0.84,4.69-4.18,5.18c-8.56,1.27-17.08,1.93-25.74,1.01
			c-12.7-1.34-17.89-8.43-18.02-19.47c-0.36-29.98-0.34-59.98-0.01-89.96c0.12-11.28,8.1-17.69,17.2-22.33
			c29.3-14.95,59.74-17.06,90.2-4.83c16.82,6.76,26.78,20.74,27.81,39.16c1.71,30.76,0.37,61.59,0.67,92.4
			c0.02,1.71,0.09,3.12-2.33,3.59c-10.83,2.1-21.72,2.99-32.56,0.65c-8.14-1.76-13.08-9.02-13.09-18.19
			c-0.04-21.99-0.31-43.99,0.08-65.97c0.33-18.78-8.8-22.6-24.76-21.41c-0.16,0.01-0.32,0.08-0.49,0.11
			c-13.95,2.17-14.85,3.2-14.85,17.11C1335.95,243.03,1335.95,255.69,1335.95,268.35z"/>
		<path d="M784.3,175.51c23.21,0.37,43.23,7.7,57.28,27.17c7.95,11.01,10.98,23.63,9.85,37.14c-0.67,7.97-7.06,14.43-16.54,16.13
			c-14.78,2.64-29.67,4.75-44.51,7.05c-8.81,1.37-17.61,2.83-26.46,3.91c-3.26,0.4-3.08,1.54-1.84,3.77
			c5.5,9.92,14.73,13.92,25.24,15.23c15.63,1.95,30.68-0.43,44.74-7.78c2.43-1.27,3.98-1.13,6.06,0.87
			c12.35,11.91,9.6,29.55-6.47,35.78c-30.8,11.95-61.24,11.33-89.64-6.79c-18.21-11.62-26.18-29.94-28.42-50.88
			c-1.44-13.48-0.48-26.79,4.46-39.58c7.52-19.48,21.54-32.11,41.31-38.32C767.4,176.69,775.74,175.22,784.3,175.51z"/>
		<path d="M1513.37,322.04c-19.03-0.04-35.72-3.76-50.59-13.92c-16.64-11.38-26.13-27.16-28.87-47.09
			c-2.68-19.49-0.03-38.06,10.86-54.67c12.72-19.39,32-27.84,54.33-30.28c11.95-1.31,23.82-0.92,35.22,3.54
			c10.72,4.2,17.95,12.84,17.18,23.41c-0.43,5.98-3.5,10.5-6.7,15.1c-1.49,2.13-3.03,0.92-4.75,0.2
			c-10.58-4.41-21.39-6.58-32.91-3.97c-13.35,3.03-23.87,14.32-25.16,27.96c-1,10.57-0.35,20.78,6.69,29.66
			c5.93,7.48,13.87,10.86,22.96,11.98c9.95,1.22,19.44-0.66,28.52-4.82c1.08-0.49,1.89-1.24,3.47-0.18
			c13.82,9.31,12.29,28.37,1.22,35.25C1534.68,320.51,1523.58,321.84,1513.37,322.04z"/>
		<path d="M1038.99,255.61c0-13.81,0.29-27.63-0.09-41.44c-0.31-11.37,4.68-19.69,14.16-24.83c19.31-10.46,40.09-15.49,62.1-13.14
			c9.56,1.02,18.12,4.75,20.82,15.47c1.63,6.47,0.41,12.75-2.03,18.84c-0.79,1.97-2.3,2.56-4.36,2.52
			c-11.85-0.22-23.33,2.21-34.79,4.91c-4.82,1.14-7.04,3.01-6.97,8.61c0.33,28.79,0.07,57.58,0.26,86.37
			c0.03,3.83-1.23,5.22-4.76,5.79c-9.56,1.56-19.16,1.94-28.71,0.62c-10.02-1.38-15.56-9.02-15.61-20.8
			C1038.94,284.23,1038.99,269.92,1038.99,255.61z"/>
		<path class="st1" d="M191.07,164.3c1.07,24.27-21.23,48.68-48.89,47.94c-24.6-0.65-47.39-23.26-46.31-50.23
			c0.92-22.88,21.35-47.01,49.35-46.16C169.85,116.6,192.26,139.06,191.07,164.3z"/>
		<path class="st1" d="M307.06,164.76c-1.06-24.26,21.23-48.67,48.9-47.93c24.58,0.66,47.38,23.25,46.29,50.24
			c-0.92,22.87-21.35,47-49.36,46.15C328.29,212.47,305.87,190.01,307.06,164.76z"/>
		<path class="st1" d="M1194.97,388.23c1.07,24.26-21.23,48.67-48.9,47.94c-24.59-0.66-47.39-23.25-46.3-50.23
			c0.92-22.88,21.35-47,49.36-46.16C1173.74,340.52,1196.16,362.99,1194.97,388.23z"/>
		<path class="st1" d="M929.49,265.05c0-4.65,0.08-9.31-0.03-13.96c-0.06-2.36,0.36-3.73,3.22-3.63c9.95,0.34,19.94-0.56,29.87,0.57
			c14.7,1.67,21.18,14.84,13.37,27.48c-3.49,5.65-9.61,7.44-15.68,8.39c-8.89,1.38-17.84,0.67-26.73-0.51
			c-2.93-0.39-4.31-1.61-4.09-4.86C929.72,274.05,929.49,269.54,929.49,265.05z"/>
		<path class="st1" d="M929.49,195.95c0-4.66,0.08-9.31-0.04-13.97c-0.05-1.95,0.37-3.26,2.53-3.39c8.44-0.52,16.92-1.36,25.32-0.02
			c11.58,1.84,17.61,8.03,17.19,16.99c-0.48,10.27-6.92,16.62-18.57,17.36c-7.95,0.5-15.96,0.02-23.94,0.15
			c-2.57,0.04-2.52-1.38-2.5-3.16C929.52,205.26,929.49,200.6,929.49,195.95z"/>
		<path class="st0" d="M1231.47,272.26c0,0.83,0,1.66,0,2.49c0,10.49,0.01,10.56-10.57,12.03c-6.56,0.91-13.13,1.23-19.62-0.75
			c-5.18-1.58-8.43-5.41-8.82-10.64c-0.37-4.93,2.24-8.75,7.52-10.88c7.68-3.1,15.9-2.59,23.9-3.43c7.56-0.8,7.59-0.51,7.59,7.2
			C1231.47,269.61,1231.47,270.93,1231.47,272.26z"/>
		<path class="st0" d="M760.87,235.29c-3.51,0.61-3.47-0.9-3.32-2.53c0.88-9.76,8.83-19.16,18.19-21.46
			c12.68-3.12,22.51,0.32,28.56,10.02c3.32,5.32,2.89,6.44-3.04,7.41c-13.03,2.12-26.07,4.2-39.11,6.3
			C761.34,235.15,760.54,235.36,760.87,235.29z"/>
	</g>
</g>
</svg>
