<?xml version="1.0" encoding="utf-8"?>
<!-- Generator: Adobe Illustrator 23.1.0, SVG Export Plug-In . SVG Version: 6.00 Build 0)  -->
<svg version="1.1" id="Layer_1" xmlns="http://www.w3.org/2000/svg" xmlns:xlink="http://www.w3.org/1999/xlink" x="0px" y="0px"
	 viewBox="0 0 1800 550" style="enable-background:new 0 0 1800 550;" xml:space="preserve">
<style type="text/css">
	.st0{fill:#FFFFFF;}
</style>
<g>
	<g>
		<path d="M0,0c600,0,1200,0,1800,0c0,183.33,0,366.67,0,550c-600,0-1200,0-1800,0C0,366.67,0,183.33,0,0z M509,185
			c11.04,0,21.5,0.07,31.96-0.02c8.82-0.08,15.24-5.1,16.87-13.21c1.51-7.52,0.43-14.83-2.14-22.03c-1.31-3.69-3.36-4.85-7.36-4.83
			c-44.83,0.17-89.66,0.01-134.48,0.21c-6.96,0.03-13.26,0.32-15.28-8.28c-0.23-1-1.55-1.7-2.23-2.64
			c-22.42-30.9-70.95-27.23-88,6.74c-1.44,2.87-2.85,4.18-6.3,4.17c-35.33-0.15-70.66-0.13-105.99-0.02
			c-2.96,0.01-4.42-0.99-5.62-3.56c-5.41-11.62-14.26-19.74-25.89-24.98c-24.09-10.87-51.7-1.91-65.41,19.99
			c-17.89,28.58-4.8,62.75,22.25,75.51c24.76,11.68,56.07,1.51,68.24-22.95c1.58-3.19,3.36-4.17,6.81-4.16
			c35,0.12,69.99,0.13,104.99-0.02c3.37-0.01,4.96,1.08,6.39,3.99c7.06,14.39,18.5,23.62,34.11,27.2c5,1.15,7.34,2.87,8.4,8.49
			c4.27,22.56,12.69,43.79,22.49,64.49c11.76,24.86,25.17,48.73,42.21,70.42c11.21,14.27,23.67,27.27,39.2,36.91
			c10.99,6.82,22.36,12.84,35.88,12.79c31.49-0.11,62.97-0.19,94.46-0.06c1.78,0.01,4.37,1.58,5.18,3.14
			c5.81,11.23,14.55,19.14,25.96,24.34c24.28,11.06,55.06,0.39,66.88-23.5c1.73-3.49,3.77-4.19,7.29-4.19
			c132.99,0.08,265.97,0.1,398.96-0.03c6.65-0.01,12.6-0.22,14.45,7.99c0.26,1.15,1.69,2,2.46,3.08
			c22.07,30.74,70.95,26.88,87.98-7.07c1.5-3,3.1-3.99,6.41-3.99c134.98,0.09,269.97,0.09,404.95,0.01c3.09,0,4.77,0.85,6.07,3.72
			c3.43,7.57,9.05,13.34,15.7,18.25c20.54,15.17,50.56,13.47,69.48-7.23c15.46-16.91,19.31-44.66,3.14-66.38
			c-23.35-31.38-70.93-27.29-88.45,7.38c-1.65,3.27-3.42,4.41-7.13,4.41c-134.32-0.11-268.64-0.09-402.95-0.09
			c-1.49,0-2.99,0-4.81,0c-4.01-10.43-10.86-18.86-20.16-24.64c-28.47-17.7-61.82-5.88-74.95,20.24c-1.45,2.88-2.78,4.52-6.56,4.51
			c-134.98-0.13-269.97-0.13-404.95-0.02c-3.42,0-5.06-1.12-6.33-4.07c-3.87-8.98-10.48-15.86-18.59-20.86
			c-28.2-17.39-62.05-5.69-74.96,21.27c-1.36,2.85-3.03,3.64-6.09,3.63c-32.5-0.12-64.99-0.2-97.49,0.03
			c-6.76,0.05-12.12-2.56-17.25-6.31c-12.65-9.25-21.77-21.76-29.6-34.9c-11.59-19.45-22.39-39.42-32.66-59.61
			c-8.69-17.08-16.72-34.58-20.37-53.62c-0.47-2.48-0.41-5.92,0.96-7.73c5.44-7.19,11.5-13.91,17.98-21.58c16.87,0,35.44,0,54.39,0
			c0,2.34,0,4.31,0,6.29c0,34.16-0.01,68.33,0.02,102.49c0,2.98,0.16,5.99,0.55,8.94c1.02,7.67,5.55,13.05,12.94,14.66
			c12.02,2.62,23.96,1.36,35.98-1.15c0-22.08,0-43.73,0-65.39C509,229.39,509,207.57,509,185z M997.58,225.66
			c-0.01,0.01,0.63-0.5,1.35-0.8c25.15-10.17,33.02-40.99,16-62.02c-7.8-9.64-18.21-14.6-29.75-17.81
			c-17.86-4.97-36.14-5.11-54.38-3.82c-11.03,0.78-22.11,2.45-32.87,4.97c-13.41,3.13-16.19,8.16-16.08,19.83
			c0.38,42.15,0.15,84.3,0.15,126.46c0,12.64,4.65,19.23,16.77,23.24c14.01,4.63,28.51,5.86,43.18,6.39
			c17.89,0.64,35.51-0.56,52.53-6.48c18.36-6.39,31-18.01,34.18-38.12c2.43-15.34,0.04-29.39-12.3-39.88
			C1010.73,232.84,1003.82,229.56,997.58,225.66z M568.51,131.17c0,2.99,0,4.31,0,5.64c0,53.33-0.01,106.66,0.02,159.99
			c0,2.48,0.08,5.02,0.59,7.44c1.41,6.75,4.86,12.27,11.79,14.15c11.81,3.2,23.62,1.59,35.59-0.71c0-2.46,0-4.45,0-6.44
			c0-27.83,0-55.66,0-83.5c0-11.53,0.49-12.1,12.11-14.25c0.49-0.09,0.97-0.24,1.47-0.29c15.96-1.45,26.89,3.46,26.44,22.68
			c-0.03,1.17,0,2.33,0,3.5c0,19.83-0.04,39.66,0.02,59.5c0.04,12.75,5.55,19.59,18.11,20.47c8.68,0.61,17.5-0.65,26.26-1.1
			c3.02-0.15,3.67-1.96,3.65-4.73c-0.24-29.98,0.08-59.97-0.72-89.94c-0.43-16.22-7.33-29.76-21.64-38.73
			c-13.59-8.52-28.64-10.2-44.1-8.92c-7.13,0.59-14.15,2.59-21.21,3.95c-0.13-0.41-0.3-0.73-0.3-1.04c-0.04-9.33-0.08-18.66-0.07-28
			c0.01-10.54-4.8-19.53-17.28-20.2C589.21,130.09,579.13,130.93,568.51,131.17z M1610.49,317.68c0-2.47,0-4.46,0-6.46
			c0-27.83,0-55.66,0-83.5c0-11.55,0.46-12.09,12.12-14.25c0.49-0.09,0.97-0.25,1.47-0.29c15.97-1.44,26.88,3.47,26.43,22.69
			c-0.03,1.17,0,2.33,0,3.5c0,19.83-0.04,39.66,0.02,59.5c0.04,12.74,5.55,19.58,18.12,20.46c8.68,0.61,17.5-0.65,26.26-1.1
			c3.03-0.16,3.66-1.98,3.64-4.74c-0.23-29.98,0.08-59.97-0.72-89.94c-0.43-16.22-7.27-29.86-21.66-38.69
			c-15.19-9.33-31.84-10.76-49.02-8.36c-5.47,0.76-10.82,2.38-16.65,3.7c0-10.27,0.09-20.08-0.03-29.89
			c-0.12-10.22-5-17.49-13.33-19.19c-11.54-2.36-23.02-1.19-34.63,1.41c0,2.47,0,4.63,0,6.79c0,51.66-0.01,103.33,0.02,154.99
			c0,2.82,0.19,5.65,0.49,8.45c0.95,9.09,6.36,15.06,15.27,16.49C1588.91,320.96,1599.43,319.89,1610.49,317.68z M1231.13,228.93
			c-2.99,0.37-5.79,0.7-8.57,1.07c-15.1,2.04-30.44,3.04-45.26,6.35c-32.26,7.2-36.2,38.27-26.81,58.97
			c6.22,13.72,18.49,19.84,32.15,23.57c14.1,3.84,28.55,4.01,42.99,2.92c14.85-1.12,29.24-4.16,41.8-12.82
			c6.79-4.68,10.77-10.79,10.66-19.57c-0.27-21.16,0.13-42.32-0.15-63.48c-0.26-19.2-8.63-33.69-26.22-42.3
			c-10.78-5.28-22.36-7.4-34.19-7.94c-16.17-0.73-32.26,0.12-47.71,5.59c-18.82,6.66-17.19,23.13-10.14,34.27
			c1.76,2.79,3.99,3.68,7.55,2.27c5.05-2,10.39-3.44,15.72-4.53c12.29-2.51,24.66-3.39,36.99-0.11
			C1228.04,215.35,1231.76,220.38,1231.13,228.93z M1336,267.83c0-12.5,0-25,0-37.5c0-13.84,1-15.4,14.95-17.02
			c16.22-1.88,25.53,2.48,25.15,21.44c-0.43,21.82-0.13,43.66-0.09,65.5c0.02,9.29,4.48,16.06,12.49,18.17
			c11,2.89,22.08,1.82,33.04-0.5c1.01-0.22,2.35-2.23,2.35-3.41c-0.04-30.82,0.38-61.66-0.65-92.44
			c-0.62-18.49-10.99-32.41-27.9-39.2c-30.44-12.22-60.8-10-90.04,4.87c-9.15,4.66-17.09,11.14-17.2,22.52
			c-0.3,29.83-0.25,59.66-0.03,89.5c0.09,12.2,5.89,18.74,17.94,19.58c8.53,0.59,17.18-0.51,25.78-0.85
			c3.35-0.13,4.32-1.82,4.28-5.14C1335.9,298.16,1336,283,1336,267.83z M760.6,267.41c10.38-1.56,19.87-2.96,29.35-4.42
			c14.91-2.29,29.86-4.39,44.72-7.03c9.89-1.76,16.02-8.26,16.8-16.57c2.07-22.12-10.56-44.99-30.51-55.2
			c-20.49-10.49-41.88-11.48-63.37-4.45c-20.09,6.57-33.81,20.31-40.55,40.64c-3.94,11.88-4.78,24.05-3.49,36.39
			c2.23,21.25,10.27,39.74,28.81,51.45c28.47,17.99,58.88,18.41,89.59,6.46c15.78-6.15,18.41-23.99,6.18-35.67
			c-2.09-2-3.68-2.1-6.09-0.85c-13.97,7.23-28.88,9.7-44.4,7.76C775.98,284.47,766.04,279.98,760.6,267.41z M1515.42,322.03
			c7.73-0.06,18.77-1.1,28.55-7.28c12.93-8.18,12.91-27.21-0.01-35.45c-0.94-0.6-2.78-0.51-3.89-0.03c-9,3.93-18.31,5.83-28.13,4.72
			c-9.19-1.04-17.17-4.47-23.14-11.88c-7.24-8.98-7.91-19.47-6.7-30.2c1.57-13.91,11.96-24.67,25.61-27.66
			c11.38-2.5,22.02-0.15,32.55,4c1.34,0.53,4.19,0.38,4.59-0.38c2.49-4.74,5.77-9.59,6.38-14.69c1.29-10.83-5.31-19.16-16.72-23.57
			c-11.63-4.5-23.7-4.94-35.82-3.53c-21.98,2.55-40.88,10.99-53.71,30c-7.52,11.15-11.01,23.69-11.76,36.99
			c-1.45,25.82,6.28,47.88,27.65,63.71C1475.95,317.95,1493.37,322.06,1515.42,322.03z M1039,255.26c0,14.5-0.07,29,0.02,43.49
			c0.08,11.62,5.49,19.54,15.51,20.38c9.51,0.8,19.18-0.17,28.78-0.47c3.64-0.11,4.81-2.02,4.78-5.81
			c-0.18-28.83,0.07-57.66-0.26-86.48c-0.06-5.15,1.84-7.45,6.29-8.16c11.61-1.85,23.26-3.42,34.87-5.29
			c1.73-0.28,4.19-1.15,4.8-2.45c2.86-6.13,3.9-12.68,2.04-19.36c-2.92-10.51-11.47-13.97-20.85-14.95
			c-21.95-2.31-42.64,2.72-61.89,13.16c-9.55,5.18-14.5,13.55-14.18,24.95C1039.28,227.92,1039,241.6,1039,255.26z"/>
		<path class="st0" d="M509,185c0,22.57,0,44.39,0,66.21c0,21.66,0,43.31,0,65.39c-12.01,2.51-23.96,3.77-35.98,1.15
			c-7.39-1.61-11.92-6.99-12.94-14.66c-0.39-2.95-0.55-5.96-0.55-8.94c-0.04-34.16-0.02-68.33-0.02-102.49c0-1.98,0-3.96,0-6.29
			c-18.95,0-37.52,0-54.39,0c-6.48,7.66-12.54,14.39-17.98,21.58c-1.37,1.81-1.43,5.26-0.96,7.73
			c3.65,19.04,11.69,36.54,20.37,53.62c10.27,20.19,21.07,40.15,32.66,59.61c7.83,13.14,16.94,25.64,29.6,34.9
			c5.13,3.75,10.48,6.35,17.25,6.31c32.49-0.22,64.99-0.15,97.49-0.03c3.06,0.01,4.73-0.79,6.09-3.63
			c12.92-26.96,46.77-38.67,74.96-21.27c8.11,5,14.72,11.88,18.59,20.86c1.27,2.95,2.91,4.07,6.33,4.07
			c134.98-0.11,269.97-0.12,404.95,0.02c3.78,0,5.11-1.63,6.56-4.51c13.14-26.12,46.49-37.95,74.95-20.24
			c9.3,5.78,16.15,14.21,20.16,24.64c1.82,0,3.31,0,4.81,0c134.32,0,268.64-0.02,402.95,0.09c3.71,0,5.48-1.14,7.13-4.41
			c17.52-34.67,65.11-38.76,88.45-7.38c16.16,21.72,12.32,49.46-3.14,66.38c-18.92,20.7-48.94,22.4-69.48,7.23
			c-6.65-4.91-12.27-10.68-15.7-18.25c-1.3-2.87-2.98-3.73-6.07-3.72c-134.98,0.08-269.97,0.08-404.95-0.01
			c-3.31,0-4.9,0.99-6.41,3.99c-17.03,33.94-65.91,37.81-87.98,7.07c-0.77-1.07-2.2-1.93-2.46-3.08c-1.85-8.22-7.8-8-14.45-7.99
			c-132.98,0.13-265.97,0.11-398.96,0.03c-3.52,0-5.56,0.7-7.29,4.19c-11.81,23.88-42.59,34.55-66.88,23.5
			c-11.41-5.19-20.15-13.11-25.96-24.34c-0.81-1.57-3.41-3.14-5.18-3.14c-31.49-0.13-62.97-0.05-94.46,0.06
			c-13.52,0.05-24.89-5.97-35.88-12.79c-15.53-9.64-27.99-22.64-39.2-36.91c-17.04-21.69-30.45-45.56-42.21-70.42
			c-9.8-20.7-18.22-41.94-22.49-64.49c-1.06-5.62-3.41-7.34-8.4-8.49c-15.61-3.59-27.05-12.81-34.11-27.2
			c-1.43-2.91-3.02-4-6.39-3.99c-35,0.15-69.99,0.14-104.99,0.02c-3.44-0.01-5.22,0.97-6.81,4.16
			c-12.17,24.47-43.48,34.63-68.24,22.95c-27.05-12.76-40.15-46.93-22.25-75.51c13.71-21.9,41.33-30.86,65.41-19.99
			c11.63,5.24,20.48,13.36,25.89,24.98c1.2,2.58,2.66,3.57,5.62,3.56c35.33-0.12,70.66-0.13,105.99,0.02
			c3.44,0.01,4.86-1.3,6.3-4.17c17.06-33.97,65.58-37.64,88-6.74c0.68,0.94,2,1.64,2.23,2.64c2.02,8.6,8.32,8.31,15.28,8.28
			c44.83-0.2,89.66-0.04,134.48-0.21c3.99-0.01,6.04,1.14,7.36,4.83c2.56,7.21,3.65,14.51,2.14,22.03
			c-1.63,8.12-8.05,13.13-16.87,13.21C530.5,185.07,520.04,185,509,185z M191,163.96c0-26.34-20.87-47.35-46.29-48.12
			c-27.52-0.83-48.25,23.31-48.94,46.7c-0.77,26.27,21.64,49.89,47.02,49.54C170.18,211.71,191,191.26,191,163.96z M402,165.11
			c0-26.4-20.82-47.47-46.14-48.27c-27.69-0.87-48.33,23.3-49.08,46.55c-0.86,26.45,21.65,49.99,46.87,49.69
			C381.13,212.75,402,192.34,402,165.11z M1195,388.03c0-26.37-20.85-47.41-46.22-48.19c-27.6-0.85-48.29,23.3-49.01,46.63
			c-0.82,26.36,21.65,49.94,46.95,49.62C1174.14,435.73,1195,415.28,1195,388.03z"/>
		<path class="st0" d="M997.58,225.66c6.24,3.9,13.15,7.18,18.78,11.97c12.34,10.49,14.73,24.53,12.3,39.88
			c-3.18,20.11-15.82,31.73-34.18,38.12c-17.02,5.92-34.64,7.12-52.53,6.48c-14.66-0.53-29.17-1.76-43.18-6.39
			c-12.12-4.01-16.77-10.6-16.77-23.24c0-42.15,0.23-84.31-0.15-126.46c-0.11-11.68,2.67-16.7,16.08-19.83
			c10.77-2.52,21.84-4.19,32.87-4.97c18.24-1.29,36.52-1.16,54.38,3.82c11.53,3.21,21.94,8.17,29.75,17.81
			c17.02,21.03,9.15,51.84-16,62.02C998.21,225.15,997.57,225.66,997.58,225.66z M929.5,247c0,11.71-0.1,22.01,0.13,32.31
			c0.03,1.26,1.67,3.38,2.84,3.59c11.33,2.05,22.75,2.92,33.97-0.57c8.29-2.58,12.87-9.48,12.56-18.14
			c-0.32-8.74-4.15-14.14-13.71-15.38C953.7,247.33,941.9,247.55,929.5,247z M929.77,212.26c10.2,0,20.2,0.76,30.02-0.22
			c9.48-0.94,14.71-7.98,14.68-17.07c-0.02-7.89-5.36-14.49-14.41-15.79c-7.65-1.1-15.52-0.76-23.29-0.87
			c-2.37-0.03-4.75,0.55-7.01,0.83C929.77,190.71,929.77,201.64,929.77,212.26z"/>
		<path class="st0" d="M568.51,131.17c10.62-0.24,20.7-1.08,30.71-0.55c12.48,0.66,17.3,9.66,17.28,20.2
			c-0.01,9.33,0.03,18.66,0.07,28c0,0.32,0.18,0.63,0.3,1.04c7.06-1.36,14.08-3.36,21.21-3.95c15.46-1.28,30.51,0.4,44.1,8.92
			c14.3,8.97,21.2,22.51,21.64,38.73c0.8,29.96,0.48,59.96,0.72,89.94c0.02,2.77-0.62,4.57-3.65,4.73
			c-8.76,0.45-17.57,1.71-26.26,1.1c-12.56-0.88-18.07-7.72-18.11-20.47c-0.06-19.83-0.02-39.66-0.02-59.5c0-1.17-0.02-2.33,0-3.5
			c0.45-19.22-10.48-24.13-26.44-22.68c-0.49,0.04-0.98,0.2-1.47,0.29c-11.62,2.15-12.11,2.73-12.11,14.25c0,27.83,0,55.66,0,83.5
			c0,1.99,0,3.98,0,6.44c-11.97,2.3-23.78,3.92-35.59,0.71c-6.93-1.88-10.38-7.39-11.79-14.15c-0.5-2.42-0.58-4.96-0.59-7.44
			c-0.03-53.33-0.02-106.66-0.02-159.99C568.51,135.48,568.51,134.16,568.51,131.17z"/>
		<path class="st0" d="M1610.49,317.68c-11.06,2.21-21.59,3.29-32.21,1.57c-8.91-1.44-14.32-7.41-15.27-16.49
			c-0.29-2.8-0.49-5.63-0.49-8.45c-0.03-51.66-0.02-103.33-0.02-154.99c0-2.16,0-4.32,0-6.79c11.61-2.6,23.09-3.77,34.63-1.41
			c8.33,1.7,13.21,8.97,13.33,19.19c0.12,9.81,0.03,19.63,0.03,29.89c5.83-1.32,11.18-2.94,16.65-3.7
			c17.18-2.4,33.83-0.97,49.02,8.36c14.39,8.84,21.23,22.48,21.66,38.69c0.8,29.96,0.48,59.96,0.72,89.94
			c0.02,2.76-0.61,4.58-3.64,4.74c-8.76,0.45-17.57,1.71-26.26,1.1c-12.57-0.88-18.08-7.72-18.12-20.46
			c-0.06-19.83-0.02-39.66-0.02-59.5c0-1.17-0.02-2.33,0-3.5c0.45-19.22-10.46-24.14-26.43-22.69c-0.49,0.04-0.98,0.2-1.47,0.29
			c-11.65,2.16-12.12,2.7-12.12,14.25c0,27.83,0,55.66,0,83.5C1610.49,313.21,1610.49,315.21,1610.49,317.68z"/>
		<path class="st0" d="M1231.13,228.93c0.63-8.56-3.1-13.58-11.19-15.74c-12.34-3.28-24.7-2.41-36.99,0.11
			c-5.33,1.09-10.67,2.53-15.72,4.53c-3.56,1.41-5.79,0.52-7.55-2.27c-7.05-11.15-8.68-27.62,10.14-34.27
			c15.44-5.46,31.53-6.32,47.71-5.59c11.84,0.53,23.41,2.66,34.19,7.94c17.59,8.61,25.97,23.1,26.22,42.3
			c0.28,21.16-0.12,42.32,0.15,63.48c0.11,8.78-3.88,14.9-10.66,19.57c-12.56,8.66-26.95,11.7-41.8,12.82
			c-14.44,1.09-28.89,0.93-42.99-2.92c-13.66-3.72-25.93-9.85-32.15-23.57c-9.38-20.7-5.45-51.77,26.81-58.97
			c14.82-3.31,30.15-4.31,45.26-6.35C1225.35,229.63,1228.14,229.3,1231.13,228.93z M1231.47,260.61c-2.78,0.15-4.92,0.13-7.01,0.41
			c-8.18,1.12-16.45,1.87-24.47,3.69c-4.78,1.08-7.78,4.86-7.49,10.36c0.28,5.29,3.45,9.49,8.6,10.91
			c9.24,2.54,18.4,1.72,27.42-1.09c1.15-0.36,2.78-1.75,2.82-2.71C1231.58,275.1,1231.47,268.01,1231.47,260.61z"/>
		<path class="st0" d="M1336,267.83c0,15.17-0.1,30.33,0.08,45.5c0.04,3.32-0.93,5.01-4.28,5.14c-8.6,0.34-17.25,1.44-25.78,0.85
			c-12.05-0.84-17.85-7.38-17.94-19.58c-0.22-29.83-0.27-59.67,0.03-89.5c0.11-11.38,8.05-17.87,17.2-22.52
			c29.23-14.87,59.6-17.09,90.04-4.87c16.92,6.79,27.28,20.72,27.9,39.2c1.03,30.79,0.61,61.63,0.65,92.44
			c0,1.18-1.34,3.2-2.35,3.41c-10.96,2.33-22.04,3.4-33.04,0.5c-8-2.1-12.47-8.88-12.49-18.17c-0.04-21.83-0.34-43.67,0.09-65.5
			c0.38-18.96-8.93-23.33-25.15-21.44c-13.95,1.62-14.95,3.19-14.95,17.02C1336,242.83,1336,255.33,1336,267.83z"/>
		<path class="st0" d="M760.6,267.41c5.44,12.57,15.38,17.06,27.03,18.51c15.52,1.94,30.43-0.53,44.4-7.76
			c2.41-1.25,4.01-1.14,6.09,0.85c12.23,11.69,9.6,29.53-6.18,35.67c-30.71,11.96-61.12,11.53-89.59-6.46
			c-18.54-11.71-26.58-30.2-28.81-51.45c-1.29-12.34-0.45-24.51,3.49-36.39c6.75-20.33,20.47-34.06,40.55-40.64
			c21.49-7.03,42.89-6.05,63.37,4.45c19.95,10.22,32.58,33.08,30.51,55.2c-0.78,8.31-6.91,14.81-16.8,16.57
			c-14.85,2.64-29.8,4.73-44.72,7.03C780.46,264.45,770.97,265.85,760.6,267.41z M806.5,227.87c-4.74-17.48-17.63-18.96-30.23-16.66
			c-10.83,1.98-19.53,13.81-18.03,24.54C774.22,233.14,790.18,230.54,806.5,227.87z"/>
		<path class="st0" d="M1515.42,322.03c-22.04,0.02-39.46-4.08-54.55-15.26c-21.37-15.83-29.1-37.89-27.65-63.71
			c0.75-13.3,4.24-25.84,11.76-36.99c12.83-19.01,31.73-27.45,53.71-30c12.13-1.41,24.2-0.97,35.82,3.53
			c11.4,4.41,18,12.74,16.72,23.57c-0.61,5.1-3.89,9.95-6.38,14.69c-0.4,0.76-3.25,0.9-4.59,0.38c-10.53-4.15-21.16-6.5-32.55-4
			c-13.65,3-24.05,13.76-25.61,27.66c-1.21,10.73-0.54,21.22,6.7,30.2c5.98,7.41,13.95,10.83,23.14,11.88
			c9.82,1.11,19.13-0.79,28.13-4.72c1.11-0.48,2.94-0.57,3.89,0.03c12.92,8.24,12.94,27.27,0.01,35.45
			C1534.19,320.94,1523.15,321.98,1515.42,322.03z"/>
		<path class="st0" d="M1039,255.26c0-13.66,0.28-27.34-0.09-40.99c-0.31-11.4,4.63-19.77,14.18-24.95
			c19.25-10.44,39.94-15.47,61.89-13.16c9.39,0.99,17.93,4.44,20.85,14.95c1.86,6.68,0.82,13.22-2.04,19.36
			c-0.61,1.3-3.07,2.17-4.8,2.45c-11.61,1.87-23.26,3.44-34.87,5.29c-4.45,0.71-6.35,3.01-6.29,8.16
			c0.33,28.82,0.08,57.66,0.26,86.48c0.02,3.79-1.14,5.7-4.78,5.81c-9.6,0.3-19.27,1.27-28.78,0.47
			c-10.02-0.85-15.43-8.76-15.51-20.38C1038.93,284.26,1039,269.76,1039,255.26z"/>
		<path d="M191,163.96c0,27.3-20.82,47.76-48.2,48.13c-25.38,0.34-47.8-23.27-47.02-49.54c0.69-23.39,21.41-47.53,48.94-46.7
			C170.13,116.61,191,137.61,191,163.96z"/>
		<path d="M402,165.11c0,27.23-20.87,47.64-48.35,47.97c-25.22,0.3-47.73-23.24-46.87-49.69c0.76-23.26,21.4-47.42,49.08-46.55
			C381.18,117.63,402,138.7,402,165.11z"/>
		<path d="M1195,388.03c0,27.25-20.86,47.7-48.28,48.05c-25.3,0.32-47.76-23.25-46.95-49.62c0.72-23.32,21.41-47.48,49.01-46.63
			C1174.15,340.62,1195,361.66,1195,388.03z"/>
		<path d="M929.5,247c12.4,0.55,24.2,0.32,35.79,1.82c9.55,1.23,13.39,6.64,13.71,15.38c0.32,8.65-4.27,15.55-12.56,18.14
			c-11.22,3.5-22.63,2.62-33.97,0.57c-1.17-0.21-2.81-2.33-2.84-3.59C929.4,269.02,929.5,258.71,929.5,247z"/>
		<path d="M929.77,212.26c0-10.62,0-21.55,0-33.12c2.26-0.28,4.64-0.86,7.01-0.83c7.77,0.11,15.64-0.24,23.29,0.87
			c9.05,1.31,14.39,7.9,14.41,15.79c0.02,9.09-5.2,16.13-14.68,17.07C949.97,213.02,939.98,212.26,929.77,212.26z"/>
		<path d="M1231.47,260.61c0,7.39,0.11,14.49-0.13,21.58c-0.03,0.96-1.66,2.36-2.82,2.71c-9.02,2.8-18.19,3.63-27.42,1.09
			c-5.15-1.42-8.31-5.62-8.6-10.91c-0.3-5.5,2.71-9.27,7.49-10.36c8.02-1.82,16.29-2.57,24.47-3.69
			C1226.55,260.74,1228.69,260.77,1231.47,260.61z"/>
		<path d="M806.5,227.87c-16.33,2.67-32.29,5.27-48.26,7.88c-1.5-10.73,7.21-22.56,18.03-24.54
			C788.88,208.91,801.76,210.39,806.5,227.87z"/>
	</g>
</g>
</svg>
