<?xml version="1.0" encoding="utf-8"?>
<!-- Generator: Adobe Illustrator 23.1.0, SVG Export Plug-In . SVG Version: 6.00 Build 0)  -->
<svg version="1.1" id="Layer_1" xmlns="http://www.w3.org/2000/svg" xmlns:xlink="http://www.w3.org/1999/xlink" x="0px" y="0px"
	 viewBox="0 0 1800 550" style="enable-background:new 0 0 1800 550;" xml:space="preserve">
<style type="text/css">
	.st0{fill:#FDFDFD;}
	.st1{fill:#2F2F2F;}
	.st2{fill:#FEFEFE;}
	.st3{fill:#0047BA;}
	.st4{fill:#0717CF;}
	.st5{fill:#E3002B;}
</style>
<g>
	<g>
		<path class="st0" d="M900,0.09c298.47,0,596.94,0.01,895.41-0.09c3.75,0,4.6,0.84,4.59,4.59c-0.11,180.27-0.11,360.54,0,540.82
			c0,3.75-0.84,4.59-4.59,4.59c-596.94-0.1-1193.88-0.1-1790.81,0c-3.75,0-4.6-0.84-4.59-4.59C0.11,365.14,0.11,184.86,0,4.59
			C0,0.84,0.84,0,4.59,0C303.06,0.1,601.53,0.09,900,0.09z"/>
		<path class="st1" d="M996.87,226.45c1.22,0.45,2,0.73,2.77,1.03c15.9,6.22,27.62,16.29,29.4,34.32
			c2.04,20.66-4.19,37.81-23.06,48.71C992.71,318.16,978,321,963,321.88c-20.48,1.2-40.96,0.59-60.9-4.97
			c-8.66-2.42-16.58-6.2-19.5-15.95c-0.79-2.63-0.78-5.26-0.78-7.9c-0.02-43.29-0.03-86.57-0.01-129.86
			c0-8.67,2.35-12.06,10.65-15.37c12.24-4.89,25.22-6.02,38.14-6.64c19.61-0.94,39.31-1.35,58.35,4.9
			c14.63,4.8,27.18,12.4,32.02,28.1c6.91,22.4,0.43,41.83-22.42,51.07C998.12,225.42,997.77,225.79,996.87,226.45z"/>
		<path class="st1" d="M1562.6,218.41c0-26.81,0.18-53.62-0.16-80.42c-0.06-4.84,1.54-6.17,5.8-6.73c9.1-1.18,18.17-2.21,27.3-0.42
			c8.53,1.68,13.48,6.87,14.53,15.43c1.22,9.96,0.49,19.96,0.53,29.94c0.02,3.41,0.54,4.2,4.14,3.07
			c15.94-5.05,32.08-5.23,48.12-0.48c21.02,6.23,34.36,22.22,34.93,44.11c0.8,30.62,0.35,61.27,0.51,91.91
			c0.01,2.3-0.78,3.06-3.03,3.47c-10.06,1.82-20.12,2.65-30.25,0.79c-8.04-1.48-13.22-6.98-14.21-15.21
			c-1.25-10.45-0.47-20.96-0.58-31.44c-0.13-12.32-0.31-24.65,0.03-36.96c0.58-20.64-13.6-24.04-26.93-21.95
			c-12.44,1.95-12.66,2.54-12.66,15.07c0,27.97-0.12,55.95,0.13,83.92c0.04,4.31-1.31,5.81-5.31,6.28
			c-9.11,1.06-18.17,2.1-27.33,0.43c-9.51-1.74-15.11-7.55-15.3-17.38c-0.34-17.48-0.21-34.96-0.26-52.45
			C1562.58,239.06,1562.6,228.74,1562.6,218.41z"/>
		<path class="st1" d="M616.78,180.53c12.5-4.45,24.76-5.48,37.37-4.68c30.09,1.9,49.49,21.26,49.98,51.36
			c0.47,28.97,0.17,57.94,0.28,86.92c0.01,2.53-0.43,3.77-3.33,4.24c-9.74,1.61-19.45,2.55-29.27,0.8
			c-8.94-1.59-13.94-6.93-14.99-16.09c-1.03-8.97-0.42-17.97-0.49-26.95c-0.11-13.65-0.29-27.31,0.03-40.96
			c0.47-20.03-13.18-23.47-26.74-21.76c-0.16,0.02-0.32,0.08-0.49,0.11c-12.36,2.41-12.36,2.41-12.36,14.88
			c0,28.14-0.05,56.28,0.07,84.42c0.01,3.49-0.52,5.34-4.56,5.84c-9.44,1.18-18.82,2.25-28.3,0.52c-8.79-1.6-14.17-7.27-15-16.14
			c-0.23-2.48-0.26-4.99-0.26-7.49c-0.01-52.79,0.01-105.57-0.07-158.36c-0.01-3.41,0.41-5.12,4.52-5.7
			c9.61-1.36,19.14-2.45,28.77-0.59c8.18,1.58,13.16,6.9,14.22,15.17c1.19,9.29,0.4,18.63,0.61,27.94
			C616.81,175.98,616.78,177.95,616.78,180.53z"/>
		<path class="st1" d="M685.14,368.77c24.98,0.06,49.96,0.18,74.94,0.18c111.1,0.02,222.2,0.01,333.3,0c1.83,0,3.66-0.13,5.48-0.2
			c1.06,1.64,0.18,3.22-0.27,4.75c-3.03,10.29-2.96,20.52,0.26,30.75c0.48,1.53,1.32,3.11,0.12,4.71c-137.98,0-275.97,0-413.95,0
			c-1.1-1.4-0.46-2.84-0.03-4.24c3.3-10.54,3.35-21.1,0.27-31.69C684.87,371.65,684.16,370.22,685.14,368.77z"/>
		<path class="st1" d="M1196.09,368.76c23.98,0.06,47.96,0.18,71.95,0.18c111.93,0.02,223.86,0.01,335.8,0
			c1.66,0,3.32-0.13,4.98-0.2c1.06,1.64,0.18,3.22-0.27,4.75c-3.03,10.29-2.96,20.52,0.26,30.75c0.48,1.53,1.32,3.11,0.12,4.71
			c-137.65,0-275.3,0-412.95,0c-1.1-1.4-0.46-2.84-0.03-4.24c3.3-10.54,3.35-21.1,0.27-31.69
			C1195.81,371.65,1195.1,370.22,1196.09,368.76z"/>
		<path class="st1" d="M1278.03,257.88c0,10.66-0.16,21.33,0.06,31.98c0.15,7.05-2.47,12.55-7.82,16.97
			c-9.68,8.01-21.12,11.75-33.27,13.57c-19.25,2.88-38.49,3.25-57.36-2.38c-14.92-4.45-27.28-12.59-31.51-28.42
			c-6.38-23.88,0.85-47.89,33.23-54.62c13.39-2.78,27.06-3.34,40.59-5.04c0.82-0.1,1.71,0.05,2.48-0.19
			c2.24-0.69,5.72,0.57,6.56-2.06c0.94-2.96-0.05-6.3-2.15-8.91c-3.74-4.62-9.1-5.88-14.58-6.7c-16.2-2.45-31.85,0.2-47.01,5.84
			c-3.66,1.36-5.44,0.37-7.49-2.27c-10.08-13.04-5.51-29.01,10.25-34.56c14.33-5.04,29.28-5.84,44.33-5.47
			c13.25,0.32,26.16,2.3,38.15,8.33c16.61,8.35,24.77,22.18,25.44,40.44c0.41,11.15,0.08,22.32,0.08,33.48
			C1278.01,257.88,1278.02,257.88,1278.03,257.88z"/>
		<path class="st1" d="M1336.04,268.06c0,14.99-0.15,29.98,0.1,44.97c0.06,3.79-1.1,5.16-4.75,5.66
			c-7.78,1.08-15.56,1.88-23.39,1.22c-14.04-1.18-20.04-7.83-20.08-22.12c-0.06-25.65-0.02-51.3-0.02-76.95
			c0-2.17,0.13-4.34-0.02-6.49c-0.74-10.37,3.92-17.86,12.23-23.54c12.24-8.35,25.96-12.66,40.48-14.34
			c16.31-1.88,32.58-1.66,48.38,3.61c21.96,7.32,34.63,24.04,34.89,47.04c0.32,28.98,0.06,57.96,0.13,86.94
			c0.01,2.5-0.38,3.77-3.31,4.25c-9.41,1.56-18.8,2.61-28.28,1.02c-11.12-1.87-16.45-7.98-16.53-19.48
			c-0.15-22.15-0.07-44.3-0.08-66.46c-0.01-15.11-5.79-20.69-21.03-20.31c-1,0.02-2,0.03-2.99,0.14
			c-13.82,1.59-15.72,3.7-15.72,17.35C1336.04,243.07,1336.04,255.57,1336.04,268.06z"/>
		<path class="st1" d="M792.53,322.25c-11.94,0.32-23.56-1.48-34.74-5.66c-27.43-10.28-43.91-34.37-44.78-65.27
			c-0.36-12.93,0.94-25.59,6.43-37.5c11.63-25.25,37.32-39.74,67.26-38.35c20.86,0.97,39.08,7.5,52.7,24.08
			c8.58,10.44,12.36,22.7,12.39,36.06c0.03,12.42-7.11,19.38-21.05,21.43c-22.2,3.27-44.36,6.75-66.58,9.87
			c-3.65,0.51-3.13,1.78-1.91,4.02c5.45,9.93,14.87,13.46,25.17,14.89c15.57,2.16,30.49-0.66,44.5-7.68
			c2.84-1.42,4.46-0.87,6.49,1.03c11.36,10.61,9.38,27.42-4.27,34.78C821.15,320.95,806.91,322.04,792.53,322.25z"/>
		<path class="st1" d="M403.05,145.05c48.63,0,97.25,0.05,145.88-0.11c3.81-0.01,5.6,1.2,6.87,4.65c2.6,7.05,3.37,14.22,2.26,21.58
			c-1.26,8.35-7.58,13.7-16.34,13.82c-9.16,0.12-18.33,0.25-27.47-0.07c-4.08-0.14-5.27,0.87-5.25,5.11
			c0.17,40.46,0.01,80.91,0.23,121.37c0.02,4.43-1.35,6.07-5.48,6.5c-9.77,1.03-19.53,2.23-29.31,0.23
			c-8.99-1.84-13.92-7.25-14.46-16.52c-0.41-7.14-0.37-14.31-0.38-21.46c-0.04-29.97-0.09-59.94,0.07-89.9
			c0.02-3.93-0.64-5.43-5.06-5.34c-17.14,0.36-34.29,0.25-51.44,0.32c-1.04-1.65-0.15-3.21,0.28-4.74
			c2.9-10.27,2.84-20.5-0.25-30.72C402.72,148.23,401.86,146.66,403.05,145.05z"/>
		<path class="st1" d="M385.11,209.01c6.55,34.01,23.57,63.65,39.4,93.76c9.21,17.52,19.64,34.31,32.87,49.17
			c2.31,2.59,4.8,5.05,7.41,7.35c7.19,6.34,15.04,9.97,25.23,9.8c31.46-0.51,62.94-0.15,94.42-0.14c1.16,0,2.32-0.13,3.49-0.2
			c1.06,1.64,0.18,3.22-0.27,4.75c-3.03,10.29-2.96,20.52,0.26,30.75c0.48,1.53,1.32,3.11,0.12,4.71
			c-32.82,0.06-65.65,0.13-98.47,0.17c-15.82,0.02-28.67-7.67-40.95-16.37c-18-12.75-31.99-29.42-44.22-47.53
			c-18.31-27.12-33.15-56.09-44.56-86.77c-4.88-13.12-8.9-26.49-10.87-40.4c1.54-1.68,3.62-1.37,5.56-1.42
			c8.89-0.24,17.29-2.32,25.17-6.49C381.33,209.28,382.93,207.62,385.11,209.01z"/>
		<path class="st1" d="M1511.9,322.1c-16.59-0.02-32.45-3.17-46.62-12.15c-25.33-16.05-34.28-40.02-31.99-68.88
			c1.8-22.62,11.01-41.46,30.85-53.6c20.44-12.5,42.79-14.97,65.82-9.34c10.38,2.54,18.99,8.17,21.35,19.9
			c1.6,7.93-1.75,14.22-6.49,20.12c-1.66,2.07-3.17,0.82-4.83,0.18c-9.23-3.55-18.6-6.31-28.66-4.63
			c-18.79,3.13-29.08,15.06-29.57,34.22c-0.49,19.39,9.04,32.26,27.1,35.58c10.17,1.87,20.3,0.56,29.71-3.91
			c3.34-1.58,5.31-0.82,7.75,1.46c11.54,10.82,9.49,27.48-4.42,35.07C1534.5,320.15,1524.83,322.07,1511.9,322.1z"/>
		<path class="st1" d="M1038.93,255.51c0-14.48,0.03-28.96-0.01-43.45c-0.02-8.22,2.94-15.33,9.75-19.75
			c21.75-14.09,45.72-19.85,71.27-15.07c19.4,3.63,19.21,21.94,13.81,33.73c-1.12,2.44-3.15,1.99-5.09,2.03
			c-12.2,0.26-24.07,2.51-35.82,5.68c-3.59,0.97-4.91,2.53-4.89,6.44c0.19,29.46,0.03,58.93,0.2,88.39c0.02,3.38-1.05,4.67-4.17,5.2
			c-8.92,1.5-17.9,2-26.86,1.09c-11.84-1.21-17.97-8.13-18.13-20.35c-0.19-14.65-0.05-29.3-0.05-43.94
			C1038.95,255.51,1038.94,255.51,1038.93,255.51z"/>
		<path class="st1" d="M192.19,144.85c23.47,0.07,46.95,0.15,70.42,0.19c14.49,0.03,28.97,0.01,43.46,0.01
			c1.08,1.41,0.46,2.85,0.01,4.24c-3.41,10.53-3.47,21.08-0.26,31.67c0.42,1.38,1.11,2.82,0.14,4.27
			c-22.81-0.07-45.62-0.15-68.42-0.19c-15.15-0.03-30.3-0.01-45.46-0.02c-1.08-1.41-0.44-2.85-0.01-4.24
			c3.29-10.53,3.34-21.08,0.26-31.67C191.92,147.73,191.21,146.3,192.19,144.85z"/>
		<path d="M1608.92,408.97c-5.13-13.39-5.7-26.79-0.11-40.21c9.79-21.54,26.6-32.74,50.18-32.7c26.54,0.05,49.15,22.3,50.92,49.27
			c1.74,26.52-18.25,50.76-44.21,54.94C1644.9,443.62,1619.98,433.33,1608.92,408.97z"/>
		<path d="M305.95,185.23c-5.58-13.41-5.05-26.8,0.12-40.18c7.39-15.28,18.68-26.01,35.49-30.18c24.58-6.1,48.78,5.04,60.08,27.56
			c0.44,0.89,0.94,1.75,1.41,2.62c5.08,13.38,5.6,26.77,0.11,40.18c-3.56,9.79-10.85,16.75-18.05,23.78
			c-7.65,3.7-15.14,7.65-23.86,8.59c-4.12,0.44-8.2,0.14-12.29,0.47c-5.05-1.49-10.34-2.14-15.19-4.36
			C320.8,207.8,311.47,198.39,305.95,185.23z"/>
		<path d="M1196.09,368.76c5.47,13.41,4.95,26.81-0.11,40.2c-7.08,14.82-18.1,25.33-34.05,29.91c-24.58,7.07-49.96-4.33-61.52-27.3
			c-0.45-0.89-0.96-1.74-1.43-2.61c-5.13-13.39-5.7-26.79-0.11-40.21c9.44-20.95,25.73-32.58,48.61-32.59
			C1170.37,336.15,1186.64,347.82,1196.09,368.76z"/>
		<path d="M192.19,144.85c5.48,13.41,4.96,26.8-0.12,40.17c-7.49,15.5-19.07,26.05-36.04,30.41c-29.31,7.52-59.33-12.78-64.27-42.6
			c-4.91-29.68,17.98-61.98,53.73-60.63C167.53,113.04,183.16,124.61,192.19,144.85z"/>
		<path d="M588.03,408.97c-5.13-13.39-5.7-26.79-0.11-40.21c9.44-20.95,25.73-32.58,48.61-32.59c22.9-0.02,39.16,11.66,48.61,32.6
			c5.47,13.41,4.95,26.81-0.11,40.2c-7.08,14.82-18.1,25.33-34.05,29.91c-24.58,7.07-49.96-4.33-61.52-27.3
			C589.02,410.69,588.51,409.84,588.03,408.97z"/>
		<path class="st2" d="M929.95,265.44c0-4.99-0.01-9.99,0-14.98c0-1.47-0.31-3.18,2.06-3.11c11.44,0.37,23-1.21,34.29,1.67
			c7.99,2.03,11.7,6.25,12.49,13.59c0.86,7.96-2.32,14.36-8.98,17.99c-5.55,3.03-11.64,4.02-17.82,3.95
			c-6.47-0.08-12.96-0.25-19.38-1.43c-2.11-0.39-2.76-1.18-2.71-3.21C930.02,275.09,929.95,270.26,929.95,265.44z"/>
		<path class="st2" d="M929.95,195.88c0-4.66,0.1-9.33-0.04-13.99c-0.06-2.09,0.61-2.96,2.71-3.15c9.47-0.85,18.97-1.65,28.31,0.66
			c8.8,2.18,13.46,8.23,13.25,16.34c-0.24,9.19-4.72,14.41-14.32,16.35c-9.24,1.86-18.61,0.48-27.91,0.88
			c-2.45,0.1-1.99-1.68-2-3.09C929.93,205.21,929.95,200.54,929.95,195.88z"/>
		<path class="st2" d="M1231.72,272.18c0,0.67,0,1.33,0,2c0,10.97,0.02,11.13-10.86,12.5c-6.09,0.76-12.27,1.27-18.34-0.39
			c-6.37-1.75-9.82-5.8-9.97-11.48c-0.14-5.33,2.57-8.71,9.25-10.73c9-2.73,18.41-2.34,27.65-3.24c1.84-0.18,2.28,0.79,2.26,2.37
			C1231.69,266.19,1231.72,269.18,1231.72,272.18z"/>
		<path class="st2" d="M758.03,235.7c-1.3,0.09-0.31-1.71-0.16-3.07c1.57-14.24,14.41-23.85,29.11-22.17
			c8.99,1.03,15.01,5.64,18.52,13.76c0.63,1.47,1.89,3.61-1.43,3.9c-1.15,0.1-2.26,0.52-3.41,0.71
			C786.93,231.05,773.19,233.26,758.03,235.7z"/>
		<path class="st3" d="M1610.84,379.6c1.67-17.28,18.66-35.27,37.72-37.71c1.68-0.85,3.61,0.08,5.28-0.76c2.39,0,4.78,0,7.17,0
			c1.68,0.84,3.61-0.08,5.28,0.76c8.92,2.01,16.77,5.63,23.6,12.19c5.23,5.02,8.79,10.71,11.83,17.02c1.31,2.71,2.31,5.46,2.29,8.5
			c0.85,1.68-0.08,3.61,0.76,5.28c0,2.39,0,4.78,0,7.16c-0.84,1.67,0.08,3.6-0.76,5.28c-1.71,9.16-5.73,16.84-12.32,23.73
			c-5.1,5.34-10.89,8.92-17.35,11.92c-2.57,1.19-5.18,2.1-8.05,2.06c-1.68,0.85-3.61-0.08-5.28,0.76c-2.39,0-4.78,0-7.17,0
			c-1.68-0.84-3.61,0.08-5.28-0.76c-17.6-1.51-36.21-20.12-37.72-37.71c-0.85-1.68,0.08-3.61-0.76-5.28c0-2.39,0-4.78,0-7.16
			C1610.91,383.2,1609.99,381.27,1610.84,379.6z"/>
		<path class="st4" d="M1653.84,341.12c-1.58,1.52-3.5,0.63-5.28,0.76C1650.17,340.63,1652.02,340.99,1653.84,341.12z"/>
		<path class="st4" d="M1666.29,341.89c-1.78-0.14-3.7,0.76-5.28-0.76C1662.82,340.99,1664.67,340.64,1666.29,341.89z"/>
		<path class="st4" d="M1610.84,379.6c-0.14,1.78,0.76,3.7-0.76,5.28C1609.94,383.06,1609.58,381.21,1610.84,379.6z"/>
		<path class="st4" d="M1704.77,384.88c-1.52-1.58-0.63-3.5-0.76-5.28C1705.26,381.22,1704.9,383.07,1704.77,384.88z"/>
		<path class="st4" d="M1610.07,392.04c1.52,1.58,0.63,3.5,0.76,5.28C1609.58,395.71,1609.94,393.86,1610.07,392.04z"/>
		<path class="st4" d="M1704.01,397.32c0.14-1.78-0.76-3.7,0.76-5.28C1704.9,393.86,1705.26,395.71,1704.01,397.32z"/>
		<path class="st4" d="M1648.56,435.04c1.78,0.14,3.7-0.76,5.28,0.76C1652.02,435.93,1650.17,436.29,1648.56,435.04z"/>
		<path class="st4" d="M1661,435.8c1.58-1.52,3.5-0.63,5.28-0.76C1664.67,436.29,1662.82,435.93,1661,435.8z"/>
		<path class="st2" d="M402.05,164.72c0.05,27.05-20.59,48.23-47.06,48.3c-27.04,0.07-47.92-20.81-47.93-47.92
			c-0.01-26.97,20.72-48.02,47.31-48.05C381.11,117.03,402.01,137.91,402.05,164.72z"/>
		<path class="st2" d="M1194.97,387.92c0.01,26.97-20.72,48-47.33,48.02c-26.94,0.03-47.69-20.96-47.66-48.19
			c0.03-26.86,20.87-47.79,47.58-47.77C1174.2,339.99,1194.96,360.99,1194.97,387.92z"/>
		<path class="st2" d="M191.07,164.06c0,26.95-20.75,47.95-47.39,47.96c-26.91,0.02-47.64-21-47.6-48.25
			c0.04-26.83,20.91-47.74,47.64-47.71C170.33,116.08,191.08,137.1,191.07,164.06z"/>
		<path class="st5" d="M684.02,389.05c1.06,24.85-20.99,48.34-47.96,48.1c-25.99-0.23-47.41-23.1-47.27-48.52
			c0.14-24.5,21.11-48.22,48.45-47.84C663.22,341.14,685.13,364.01,684.02,389.05z"/>
	</g>
</g>
</svg>
