<?xml version="1.0" encoding="utf-8"?>
<!-- Generator: Adobe Illustrator 23.1.0, SVG Export Plug-In . SVG Version: 6.00 Build 0)  -->
<svg version="1.1" id="Layer_1" xmlns="http://www.w3.org/2000/svg" xmlns:xlink="http://www.w3.org/1999/xlink" x="0px" y="0px"
	 viewBox="0 0 1800 550" style="enable-background:new 0 0 1800 550;" xml:space="preserve">
<style type="text/css">
	.st0{fill:#2F2F2F;}
	.st1{fill:#FEFEFE;}
	.st2{fill:#0047BA;}
	.st3{fill:#E3002B;}
</style>
<g>
	<g>
		<path class="st0" d="M899.5,549.91c-298.3,0-596.6-0.01-894.91,0.09c-3.75,0-4.6-0.84-4.59-4.59C0.11,365.14,0.11,184.86,0,4.59
			C0,0.84,0.84,0,4.59,0c596.94,0.1,1193.88,0.1,1790.81,0c3.75,0,4.6,0.84,4.59,4.59c-0.11,180.27-0.11,360.54,0,540.82
			c0,3.75-0.84,4.59-4.59,4.59C1496.77,549.9,1198.14,549.91,899.5,549.91z"/>
		<path class="st1" d="M586.89,409.07c-24.83,0.06-49.65,0.13-74.48,0.18c-4.17,0.01-8.39-0.47-12.49,0.08
			c-22.5,3-40.32-7-56.99-20.21c-19.55-15.48-34.28-35.13-47.2-56.13c-16.25-26.42-29.91-54.14-39.66-83.68
			c-2.87-8.69-5.32-17.5-6.91-26.51c-0.47-2.64-1.34-4.07-4.12-4.6c-18.28-3.49-31.35-13.82-39.31-30.59
			c-0.92-1.95-1.93-2.65-4.09-2.64c-35.16,0.07-70.32,0.08-105.48-0.01c-2.45-0.01-3.32,1.04-4.37,3.01
			c-10.99,20.61-28.15,30.69-51.61,30.03c-24.96-0.71-48.28-22.99-50-47.91c-2.02-29.44,15.66-52.7,44.44-58.43
			c22.39-4.46,46.69,7.88,57.07,29.37c1.59,3.29,3.35,4.1,6.7,4.09c33.99-0.11,67.99-0.11,101.98,0c3.17,0.01,4.84-0.75,6.46-3.77
			c10.23-19.07,26.22-29.3,48.02-29.2c21.59,0.1,37.4,10.38,47.46,29.29c1.66,3.12,3.45,3.68,6.52,3.67
			c46.83-0.07,93.65,0,140.48-0.14c3.82-0.01,5.56,1.24,6.81,4.72c2.77,7.72,3.88,15.48,1.8,23.49
			c-1.89,7.32-7.68,11.79-15.31,11.85c-9.33,0.07-18.68,0.33-27.99-0.11c-4.71-0.22-5.4,1.46-5.38,5.64
			c0.15,39.98-0.01,79.97,0.21,119.95c0.03,5.07-0.89,7.42-6.49,7.79c-8.13,0.54-16.16,1.84-24.37,0.82
			c-13.39-1.67-19.12-7.66-19.37-21.26c-0.18-9.83-0.06-19.66-0.06-29.49c0-26.32-0.07-52.65,0.08-78.97
			c0.02-3.42-0.73-4.49-4.32-4.44c-15.49,0.21-30.99,0.14-46.49,0.04c-2.6-0.02-4.17,0.49-5.31,3.13
			c-3.23,7.44-8.03,13.79-14.5,18.75c-2.14,1.64-2.57,3.35-2.12,5.98c2.51,14.41,8.01,27.83,14,40.98
			c12.15,26.64,25.3,52.79,41.55,77.24c5.52,8.31,11.57,16.21,18.46,23.45c9.23,9.7,19.83,14.88,33.9,14.55
			c30.81-0.72,61.65-0.15,92.48-0.11c1.96,1.86,1.12,4.03,0.53,6.05c-2.75,9.35-2.72,18.67,0.03,28.01
			C588.02,405.03,588.82,407.2,586.89,409.07z"/>
		<path class="st1" d="M686.19,368.94c58.64-0.03,117.29-0.07,175.93-0.08c77.3-0.01,154.61,0,231.91,0.08
			c2.53,0,3.75-0.8,4.88-3.04c10.1-20.1,26.35-30.98,48.99-30.82c22.21,0.15,38.14,10.98,48.08,30.69c1.08,2.14,2.16,3.19,4.79,3.18
			c54.14-0.13,108.29-0.21,162.43-0.19c81.47,0.03,162.94,0.13,244.41,0.2c1.83,1.92,0.92,4.08,0.36,6.09
			c-2.57,9.35-2.34,18.64,0.33,27.93c0.58,2.03,1.39,4.18-0.46,6.07c-31.98,0.02-63.96,0.05-95.95,0.07
			c-96.1,0.05-192.2,0.1-288.3,0.14c-7.49,0-14.99,0.02-22.48-0.19c-2.8-0.08-4.33,0.71-5.74,3.35
			c-10.31,19.24-26.35,29.62-48.36,29.46c-21.58-0.16-37.29-10.53-47.41-29.39c-1.39-2.58-2.84-3.43-5.7-3.42
			c-64.46,0.13-128.93,0.2-193.39,0.19c-71.45-0.01-142.9-0.11-214.35-0.17c-1.93-1.87-1.12-4.03-0.53-6.07
			c2.75-9.35,2.78-18.66,0.03-28.01C685.07,372.96,684.23,370.8,686.19,368.94z"/>
		<path class="st1" d="M998.17,226.51c14.69,5.45,26.36,13.94,30.25,29.58c4.66,18.78-0.4,43.97-24.73,56.05
			c-14.32,7.11-29.65,9.58-45.32,10.36c-19.19,0.96-38.29-0.14-56.84-5.55c-15.76-4.59-20.27-11.12-20.27-27.52
			c0-41.12,0-82.24,0-123.36c0-12.27,2.83-16.3,14.57-19.86c15.93-4.83,32.41-5.56,48.87-5.89c16.53-0.34,32.92,1.03,48.57,6.95
			c23.13,8.75,34.45,28.48,29.67,51.56c-2.45,11.83-10.02,19.55-20.35,25.03C1001.17,224.61,999.38,224.77,998.17,226.51z"/>
		<path class="st1" d="M616.94,180.19c15.03-5.37,29.81-6.61,44.79-3.52c27.24,5.62,42.01,22.04,42.82,49.75
			c0.86,29.45,0.25,58.95,0.39,88.42c0.01,2.33-0.84,3.34-2.93,3.72c-10.05,1.8-20.19,2.7-30.29,0.97
			c-10.23-1.75-15.5-8.64-15.57-20.03c-0.14-21.98-0.01-43.96-0.09-65.95c-0.04-10.42-3.77-16.33-12.19-18.96
			c-8.51-2.66-16.73-1.02-24.77,2.34c-2.85,1.19-2.08,3.46-2.08,5.48c-0.03,30.14-0.13,60.29,0.09,90.43
			c0.03,4.3-1.24,5.69-5.36,6.2c-7.96,0.97-15.86,1.64-23.88,0.97c-12.31-1.02-18.38-6.8-19.54-19.05
			c-0.17-1.82-0.13-3.66-0.13-5.49c-0.01-52.79,0.04-105.58-0.1-158.37c-0.01-3.97,1.11-5.52,5.03-5.97
			c8.43-0.98,16.78-2.14,25.34-1.14c11.74,1.37,18.14,7.69,18.42,19.51C617.13,159.48,616.94,169.47,616.94,180.19z"/>
		<path class="st1" d="M1610.84,180.2c15.15-5.41,29.92-6.61,44.91-3.5c27.51,5.71,42.24,22.75,42.81,50.84
			c0.58,28.97,0.16,57.95,0.28,86.93c0.01,2.41-0.63,3.71-3.05,4.13c-9.89,1.74-19.86,2.57-29.81,1.02
			c-10.4-1.62-15.87-8.65-15.94-20.25c-0.13-21.98-0.01-43.96-0.09-65.95c-0.04-10.21-3.65-15.96-11.84-18.69
			c-8.67-2.89-17.04-1.2-25.23,2.25c-2.84,1.2-1.96,3.55-1.96,5.55c-0.04,29.81-0.14,59.62,0.08,89.43
			c0.03,4.69-0.94,6.68-5.98,7.18c-7.8,0.78-15.54,1.5-23.39,0.85c-11.91-0.98-17.78-6.37-19.31-18.17
			c-0.26-1.97-0.22-3.99-0.22-5.98c-0.01-52.96,0.05-105.91-0.12-158.87c-0.01-4.13,1.44-5.38,5.17-5.85
			c8.43-1.06,16.78-2.13,25.34-1.13c11.64,1.36,18.04,7.77,18.31,19.63C1611.01,159.6,1610.84,169.59,1610.84,180.2z"/>
		<path class="st1" d="M1278.33,256.17c0,10.49-0.45,21.01,0.12,31.47c0.58,10.67-4.3,17.72-12.81,23.05
			c-9.93,6.21-20.93,9.18-32.4,10.67c-17.48,2.26-34.9,2.28-52-2.52c-15.27-4.28-28.47-11.97-33.02-28.14
			c-7.48-26.6,1.48-50.56,35.93-56.6c14.1-2.47,28.39-3.52,42.62-4.86c4.56-0.43,4.76-2.3,3.91-5.7c-1.37-5.46-5.21-8.31-10.34-9.71
			c-13.54-3.69-27.05-2.43-40.49,0.53c-4.52,1-9.02,2.34-13.31,4.07c-2.95,1.19-4.6,0.3-6.42-1.81
			c-10.41-12.09-6.78-28.69,7.85-35.03c9.43-4.09,19.55-5.2,29.67-6.01c16.74-1.33,33.3-0.53,49.17,5.54
			c19.24,7.36,30.35,21.11,31.21,42.06c0.45,10.97,0.08,21.98,0.08,32.97C1278.17,256.17,1278.25,256.17,1278.33,256.17z"/>
		<path class="st1" d="M789.55,175.12c18.86,0.74,39.47,8.11,53.35,28.78c6.99,10.4,9.76,22.1,9.02,34.6
			c-0.57,9.62-7.43,16.57-18.63,18.35c-19.69,3.13-39.42,6.01-59.14,8.99c-2.3,0.35-4.6,0.72-6.9,1.02c-6.4,0.82-6.89,1.77-2.79,7
			c6.8,8.7,16.59,11.36,26.9,12.12c14.38,1.06,28.15-1.76,41.01-8.35c2.41-1.23,3.81-0.82,5.67,0.8
			c12.47,10.85,10.26,28.96-4.73,36.32c-15.55,7.64-32.3,8.68-49.2,7.65c-15.5-0.95-30.21-4.95-42.93-14.27
			c-22.27-16.31-29.25-39.32-28.29-65.71c0.85-23.58,9.82-42.87,29.91-56.13C753.84,178.99,769.19,175.07,789.55,175.12z"/>
		<path class="st1" d="M1424.03,268.32c0,15.16,0,30.32,0,45.48c0,2.13,0.42,4.31-2.75,4.82c-10.4,1.66-20.84,2.83-31.26,0.63
			c-8.41-1.77-12.75-6.95-14.11-15.36c-0.83-5.14-0.63-10.3-0.64-15.45c-0.03-18.99,0.03-37.98-0.03-56.97
			c-0.04-12.23-5.3-17.75-17.46-18.12c-5.85-0.17-11.57,0.86-17.06,3.1c-3.11,1.27-4.45,3.04-4.43,6.71
			c0.18,29.82-0.02,59.63,0.22,89.45c0.04,4.62-1.56,5.88-5.76,6.47c-8.46,1.18-16.89,1.65-25.39,0.82
			c-10.41-1.02-17.11-7.32-17.31-17.79c-0.45-23.48-0.32-46.97-0.42-70.45c-0.03-6.16,0.19-12.33-0.04-18.49
			c-0.36-9.57,3.9-16.59,11.44-21.97c11.35-8.1,24.19-12.43,37.8-14.52c17.8-2.73,35.49-2.48,52.77,3.37
			c21.79,7.38,33.94,23.83,34.3,46.8c0.22,13.82,0.04,27.65,0.04,41.48C1423.98,268.32,1424.01,268.32,1424.03,268.32z"/>
		<path class="st1" d="M1513.63,322.4c-16.68-0.12-30.49-2.55-43.29-9.26c-23.31-12.23-35.73-31.64-37.36-57.8
			c-1.59-25.59,4.56-48.59,26.03-64.59c21.47-15.99,45.89-18.95,71.61-12.8c3.91,0.93,7.47,2.73,10.78,5.02
			c12.52,8.69,14.13,23.57,4.04,35.03c-1.99,2.26-3.58,1.59-5.57,0.7c-9.8-4.35-20.08-6.37-30.64-4.38
			c-18.76,3.54-29.89,20.19-27.08,39.67c2.97,20.59,18.86,32.45,39.69,29.78c6.15-0.79,12.08-2.3,17.68-4.87
			c2.37-1.09,3.88-0.7,5.78,0.86c13.14,10.82,11.49,28.8-3.5,36.77C1532.25,321.61,1521.78,322.23,1513.63,322.4z"/>
		<path class="st2" d="M1607.84,409.04c-4.64-13.33-5.17-26.69-0.23-40.08c8.86-23.33,33.78-37.86,57.39-33.47
			c26.41,4.91,44.94,26.3,44.86,52.18c-0.07,22.83-10.42,39.88-31.04,49.39c-20.51,9.47-39.96,5.94-57.23-8.63
			C1615.39,423.18,1611.09,416.46,1607.84,409.04z"/>
		<path class="st3" d="M686.19,368.94c4.82,13.38,4.77,26.76-0.03,40.13c-9.78,21.16-26.24,32.74-49.63,32.74
			s-39.85-11.58-49.63-32.74c-4.79-13.37-4.85-26.75-0.03-40.13c9.77-21.21,26.21-32.82,49.66-32.82
			C659.98,336.12,676.43,347.72,686.19,368.94z"/>
		<path class="st1" d="M1038.67,255.68c0-13.83,0.27-27.66-0.08-41.48c-0.29-11.58,4.67-19.8,14.48-25.38
			c12.43-7.07,26.01-10.67,40.04-12.72c9.61-1.41,19.25-1.75,28.66,1.15c14.36,4.42,20.33,21.55,12.15,34.17
			c-1.21,1.87-2.73,1.5-4.32,1.6c-11.95,0.68-23.72,2.43-35.32,5.49c-4.29,1.13-6.05,2.8-6,7.72c0.31,28.32,0.01,56.64,0.27,84.96
			c0.05,5.3-1.04,7.52-6.81,8.12c-8.8,0.91-17.52,1.72-26.32,0.57c-9.71-1.28-16.08-7.7-16.33-17.73
			c-0.39-15.48-0.1-30.98-0.1-46.47C1038.89,255.68,1038.78,255.68,1038.67,255.68z"/>
		<path class="st0" d="M946.52,247.85c6.31,0.12,12.65-0.37,18.89,1.1c7.52,1.77,11.84,5.85,12.72,12.24
			c1.27,9.22-1.35,15.18-8.44,19.06c-9.78,5.36-20.37,4.18-30.77,3.38c-8.97-0.69-8.94-1.08-8.94-10.26
			c0-7.33,0.13-14.66-0.06-21.98c-0.07-2.83,0.77-3.75,3.61-3.6C937.85,248.03,942.19,247.86,946.52,247.85z"/>
		<path class="st0" d="M929.99,195.69c0-4.5,0-8.99,0-13.49c0-1.51-0.18-3.09,2.07-3.19c9.78-0.45,19.6-1.99,29.28,0.9
			c8.76,2.62,13.27,8.61,12.66,16.73c-0.64,8.55-5.94,14.14-14.95,15.4c-8.78,1.23-17.63,0.52-26.45,0.73
			c-2.42,0.06-2.67-1.18-2.64-3.09C930.04,205.02,929.99,200.36,929.99,195.69z"/>
		<path class="st0" d="M1231.18,272.82c0,11.69,0,11.65-11.56,13.59c-5.47,0.92-10.89,0.99-16.31-0.26
			c-6.41-1.48-10.14-5.41-10.41-10.99c-0.26-5.53,2.6-9.1,9.46-11.02c8.7-2.44,17.79-1.9,26.66-3.16c1.91-0.27,2.2,0.81,2.18,2.36
			C1231.14,266.51,1231.17,269.66,1231.18,272.82z"/>
		<path class="st0" d="M784.08,210.86c10.54-0.01,17.84,4.74,21.16,13.46c0.97,2.55,0.66,3.38-2.19,3.82
			c-13.77,2.13-27.51,4.42-41.24,6.8c-3.57,0.62-4.32-0.39-3.52-3.85C761.29,218.12,770.4,210.87,784.08,210.86z"/>
	</g>
</g>
</svg>
