<?xml version="1.0" standalone="no"?>
<!DOCTYPE svg PUBLIC "-//W3C//DTD SVG 20010904//EN"
 "http://www.w3.org/TR/2001/REC-SVG-20010904/DTD/svg10.dtd">
<svg version="1.0" xmlns="http://www.w3.org/2000/svg"
 width="1024.000000pt" height="1024.000000pt" viewBox="0 0 1024.000000 1024.000000"
 preserveAspectRatio="xMidYMid meet">
<metadata>
Created by potrace 1.11, written by Peter Selinger 2001-2013
</metadata>
<g transform="translate(0.000000,1024.000000) scale(0.100000,-0.100000)"
fill="#000000" stroke="none">
<path d="M1765 8313 c-11 -2 -56 -11 -100 -19 -229 -43 -469 -169 -634 -333
-89 -89 -140 -152 -198 -246 -34 -54 -117 -232 -130 -278 -19 -70 -34 -127
-39 -157 -3 -14 -7 -36 -10 -50 -13 -56 -11 -309 2 -395 34 -218 131 -438 271
-612 56 -70 203 -213 220 -213 6 0 13 -4 15 -9 7 -20 168 -112 283 -162 33
-15 136 -46 195 -59 53 -13 98 -39 68 -41 -7 0 -4 -4 7 -9 11 -5 15 -9 10 -9
-14 -1 -14 -41 0 -41 5 0 3 -5 -5 -10 -12 -7 -12 -10 -1 -10 7 0 11 -6 7 -15
-3 -8 0 -15 7 -15 8 0 6 -4 -3 -10 -12 -8 -12 -10 -1 -10 8 0 11 -3 8 -7 -4
-3 -2 -12 4 -19 7 -8 7 -14 -1 -19 -7 -4 -7 -12 0 -26 6 -10 11 -35 12 -54 1
-19 4 -35 7 -35 4 0 7 -17 9 -37 5 -76 6 -83 17 -83 5 0 3 -5 -5 -10 -12 -8
-12 -10 -1 -10 9 0 12 -9 9 -30 -3 -16 -1 -30 4 -30 5 0 6 -4 3 -10 -3 -5 -2
-10 3 -10 6 0 9 -13 8 -30 -1 -16 1 -30 5 -30 4 0 5 -9 2 -20 -3 -11 -1 -20 4
-20 5 0 10 -16 11 -36 2 -20 7 -45 12 -54 6 -11 5 -21 -3 -30 -8 -8 -8 -11 -1
-7 7 4 14 -3 16 -18 3 -13 0 -26 -6 -29 -6 -2 -4 -5 5 -5 17 -1 22 -31 5 -31
-6 0 -5 -4 2 -9 7 -4 14 -18 15 -29 1 -12 4 -22 7 -22 3 0 6 -14 7 -32 1 -17
8 -35 15 -40 8 -4 8 -8 2 -8 -6 0 -11 -7 -11 -15 0 -8 5 -11 10 -8 6 4 8 0 4
-10 -3 -10 -2 -17 3 -17 5 0 7 -7 4 -15 -4 -9 0 -15 7 -15 11 0 11 -3 -1 -10
-12 -7 -12 -10 -1 -10 7 0 11 -6 8 -13 -3 -7 1 -24 9 -38 7 -13 13 -38 14 -56
0 -20 7 -36 18 -42 12 -7 13 -10 3 -11 -11 0 -9 -5 5 -22 10 -12 13 -18 7 -14
-7 4 -13 2 -13 -3 0 -6 4 -11 10 -11 5 0 7 -6 4 -14 -3 -8 0 -17 5 -21 6 -3 9
-11 6 -16 -4 -5 -1 -9 6 -9 6 0 9 -8 6 -20 -3 -11 -1 -20 4 -20 4 0 6 -7 3
-15 -4 -8 -2 -15 2 -15 5 0 10 -14 11 -32 1 -17 8 -35 15 -40 7 -4 10 -8 5 -8
-4 0 -1 -13 7 -29 9 -16 12 -31 9 -34 -3 -4 0 -13 6 -21 7 -8 10 -20 6 -26 -3
-5 -3 -10 2 -10 4 0 13 -11 20 -25 6 -14 7 -23 2 -19 -5 3 -6 -2 -3 -10 3 -9
10 -16 15 -16 5 0 9 -5 9 -11 0 -5 -4 -7 -10 -4 -6 3 -7 -1 -4 -9 3 -9 10 -16
15 -16 5 0 9 -9 9 -19 0 -11 5 -23 11 -26 6 -4 8 -13 5 -21 -3 -8 1 -17 9 -20
8 -4 13 -9 10 -13 -7 -12 21 -82 30 -74 4 5 5 3 2 -4 -9 -14 2 -45 13 -38 5 3
6 -5 2 -17 -3 -14 -1 -19 6 -14 7 4 10 -1 7 -14 -2 -12 2 -23 10 -26 7 -3 11
-12 8 -20 -3 -8 1 -14 8 -14 7 0 9 -3 6 -7 -4 -3 -1 -13 6 -21 10 -13 9 -14
-3 -8 -8 4 -4 -2 10 -14 14 -12 20 -19 14 -16 -6 3 -11 -1 -11 -8 0 -8 6 -12
12 -10 6 3 12 -1 13 -8 2 -31 12 -62 23 -69 6 -4 8 -12 5 -18 -4 -6 -4 -11 1
-10 20 4 24 -2 12 -18 -10 -11 -10 -14 -1 -9 7 4 12 1 12 -8 0 -9 5 -16 10
-16 6 0 10 -9 10 -20 0 -11 4 -20 9 -20 8 0 24 -37 22 -52 -1 -5 4 -8 10 -8 5
0 7 -5 4 -10 -3 -6 -1 -10 4 -10 6 0 11 -6 11 -14 0 -8 5 -16 10 -18 6 -2 12
-13 13 -25 0 -12 4 -20 7 -18 3 2 12 -5 19 -17 10 -16 10 -19 -1 -13 -7 3 -5
0 4 -8 10 -8 15 -17 11 -20 -3 -4 -1 -7 5 -7 7 0 12 -7 12 -15 0 -8 5 -15 10
-15 6 0 10 -10 10 -22 0 -12 3 -18 6 -15 7 6 36 -39 50 -75 3 -10 12 -18 20
-18 8 0 11 -6 7 -17 -4 -11 -3 -14 5 -9 8 5 12 0 12 -13 0 -12 9 -26 20 -33
11 -7 20 -18 20 -25 0 -7 7 -16 16 -21 9 -5 15 -12 15 -15 -1 -4 2 -7 7 -6 4
0 10 -10 13 -23 3 -13 11 -22 18 -20 7 1 10 -2 6 -8 -3 -5 -1 -10 5 -10 6 0 8
-4 5 -10 -3 -5 1 -10 10 -10 12 0 15 -5 11 -17 -4 -10 -4 -14 0 -11 6 7 35
-16 34 -27 -1 -10 25 -33 33 -28 4 2 7 0 7 -6 0 -6 11 -22 25 -36 14 -14 22
-25 18 -25 -4 0 3 -6 17 -13 14 -8 24 -20 22 -28 -2 -8 -1 -11 3 -7 8 8 16 2
79 -59 24 -23 47 -39 50 -36 3 4 6 -2 7 -13 0 -10 3 -13 6 -7 3 10 8 10 19 -1
8 -8 14 -20 14 -26 0 -6 4 -9 9 -5 5 3 16 -2 25 -11 9 -8 21 -12 27 -8 8 4 9
3 5 -4 -4 -8 3 -16 18 -22 14 -5 26 -14 26 -19 0 -6 6 -8 14 -5 7 3 16 -2 19
-10 4 -9 15 -16 26 -16 11 0 23 -5 26 -10 4 -6 11 -8 16 -5 5 4 9 -1 9 -10 0
-9 4 -14 8 -11 5 3 20 -1 35 -9 15 -8 27 -11 27 -8 0 3 7 0 15 -7 8 -7 15 -9
15 -6 0 4 10 1 23 -6 12 -7 25 -11 30 -10 4 1 7 -3 7 -9 0 -5 4 -8 9 -5 5 4
22 1 38 -6 15 -6 38 -11 51 -11 12 0 22 -4 22 -8 0 -5 5 -9 11 -9 5 0 7 4 4
10 -3 6 1 7 9 4 9 -3 13 -11 9 -18 -4 -7 -1 -7 9 1 8 7 17 11 20 8 6 -6 74
-16 128 -18 25 -1 48 -6 52 -12 5 -7 8 -7 8 0 0 6 38 11 95 12 53 1 100 5 104
8 5 3 12 -1 14 -7 3 -7 6 -8 6 -3 1 11 621 12 639 1 6 -3 13 0 15 6 4 10 8 10
15 -1 7 -10 11 -10 17 -1 6 9 10 9 16 -1 7 -12 9 -12 9 -1 0 8 28 -10 63 -40
149 -129 338 -221 544 -267 116 -26 394 -29 508 -5 510 105 898 502 1002 1024
23 115 23 354 0 472 -103 522 -501 924 -1014 1024 -107 21 -335 24 -443 5
-391 -68 -743 -330 -920 -684 l-41 -82 -119 0 c-79 -1 -117 3 -112 10 4 7 1 7
-9 0 -17 -12 -39 -13 -58 -1 -9 6 -12 5 -8 0 7 -12 -143 -12 -162 0 -10 7 -12
5 -6 -5 8 -12 6 -12 -8 0 -9 7 -17 9 -17 4 0 -5 -18 -9 -40 -8 -22 0 -40 4
-40 8 0 5 -4 5 -10 2 -5 -3 -10 -1 -10 6 0 7 -3 9 -7 6 -3 -4 -13 -1 -21 6
-13 10 -14 9 -7 -3 4 -8 -2 -6 -13 5 -36 34 -51 45 -62 45 -6 0 -8 5 -5 10 3
6 -1 10 -9 10 -9 0 -16 7 -16 16 0 10 -5 14 -16 10 -8 -3 -12 -2 -9 4 3 6 1
10 -4 10 -6 0 -11 7 -11 16 0 8 -4 12 -10 9 -5 -3 -10 1 -10 9 0 9 -4 16 -10
16 -5 0 -10 7 -10 16 0 8 -4 12 -10 9 -5 -3 -10 -1 -10 4 0 19 -4 25 -30 52
-14 14 -26 32 -28 40 -2 8 -8 16 -13 17 -5 2 -7 8 -3 13 3 5 -2 12 -10 15 -9
3 -16 15 -16 25 0 10 -4 19 -10 19 -5 0 -10 7 -10 15 0 8 -4 15 -10 15 -5 0
-10 9 -10 19 0 11 -4 23 -10 26 -5 3 -10 14 -10 24 0 10 -7 24 -15 31 -9 7
-14 19 -11 27 3 7 1 13 -4 13 -6 0 -10 9 -10 20 0 11 -4 20 -8 20 -4 0 -8 10
-9 22 -1 11 -6 24 -11 27 -5 3 -8 14 -6 24 1 9 -3 17 -9 17 -5 0 -7 3 -4 7 4
3 1 13 -6 21 -10 13 -9 14 3 7 13 -8 13 -7 0 9 -8 10 -15 27 -17 39 -2 11 -9
27 -16 36 -9 12 -9 13 1 7 18 -11 15 5 -5 21 -10 8 -12 11 -4 7 10 -5 12 -3 5
7 -5 8 -9 17 -10 22 -1 4 -2 8 -4 10 -1 1 -3 9 -5 17 -10 48 -24 97 -31 114
-6 15 -4 18 7 12 8 -4 3 1 -10 12 -16 13 -20 21 -12 26 9 6 9 11 0 22 -6 7 -9
20 -6 29 4 8 2 17 -4 20 -5 4 -7 11 -4 16 4 5 1 9 -6 9 -8 0 -7 5 2 17 12 14
12 16 0 8 -11 -6 -13 -4 -8 8 3 10 2 17 -3 17 -5 0 -7 7 -4 15 4 8 1 15 -5 15
-9 0 -9 5 0 21 6 12 7 19 1 15 -5 -3 -12 3 -15 14 -3 11 0 20 6 20 7 1 6 6 -3
13 -17 14 -19 25 -6 46 6 10 5 12 -2 7 -11 -7 -16 17 -15 62 1 6 -2 12 -6 12
-3 0 -7 13 -8 28 -3 42 -7 56 -18 64 -6 5 -6 8 2 8 9 0 8 7 -2 27 -10 20 -11
31 -3 40 8 10 6 13 -8 13 -11 0 -15 4 -9 8 14 10 17 32 4 32 -6 0 -9 9 -6 20
3 11 1 20 -4 20 -4 0 -6 7 -3 15 4 8 1 22 -5 29 -9 11 -9 16 0 21 8 5 8 9 0
14 -6 4 -12 28 -13 54 -2 26 -6 47 -10 47 -3 0 -5 14 -4 31 1 19 -3 33 -12 36
-11 5 -11 7 0 14 10 7 11 12 0 29 -10 16 -10 20 0 20 8 0 9 3 3 8 -6 4 -10 14
-10 22 1 8 -4 25 -12 37 -8 14 -9 24 -3 28 6 4 4 18 -7 38 -15 30 -15 31 1 18
14 -12 16 -12 10 3 -3 9 -11 16 -18 16 -6 0 -4 5 4 10 8 5 10 10 4 10 -7 0
-10 13 -8 30 2 17 0 30 -5 30 -4 0 -8 15 -8 33 0 17 -4 50 -8 72 -4 22 -8 63
-9 92 0 28 -4 49 -7 47 -4 -2 -9 3 -13 11 -3 8 0 15 6 15 6 0 5 6 -3 17 -12
15 -12 16 1 8 12 -6 13 -5 3 6 -7 7 -13 32 -13 56 0 28 -4 43 -12 43 -9 0 -8
4 2 10 10 6 774 10 2107 10 l2092 0 15 -28 c30 -58 135 -189 207 -259 93 -91
190 -161 299 -217 210 -107 390 -148 620 -141 597 19 1082 439 1207 1045 24
117 23 353 -1 475 -105 522 -500 921 -1010 1021 -113 22 -310 25 -426 8 -346
-54 -668 -261 -865 -558 l-37 -56 -2109 0 -2109 0 -17 28 c-91 144 -225 287
-354 378 -133 94 -319 177 -457 204 -26 5 -58 12 -72 16 -29 7 -315 13 -345 7z"/>
</g>
</svg>
